<svg xmlns="http://www.w3.org/2000/svg" viewBox="0 0 414.8 212.65"><title>Asset 1</title><g id="Layer_2" data-name="Layer 2"><g id="Layer_1-2" data-name="Layer 1"><path d="M388.25,82.8c0-.87.07-1.74.07-2.63a44.94,44.94,0,0,0-66.54-39.41C316.65,17.34,295.37,0,270,0l-2.75.07A52.54,52.54,0,0,0,220,35,65.48,65.48,0,0,0,169.6,15.19C138,16.76,113,39.75,108.71,69.32a52.14,52.14,0,0,0-17.27-2.94A54.72,54.72,0,0,0,36.78,121c0,.57,0,1.12.08,1.71C21.61,126.9,0,135.79,0,166.88c0,24.73,22,44.85,48.89,44.85l2.6-.06c16.75-.86,86.2.05,86.22.05l0-1.14.36,0,.06,1.08v-1.08c9.22,1.25,30.6,1.29,80.34,1.39,0,0,37.39.63,64.53.63,10.23,0,19-.09,23.88-.34,25.48-1.27,46.68-25.47,45.74-52h4.82c8.37,0,15.57-.08,19.51-.28,10.67-.53,20.54-5.66,27.82-14.44a42.65,42.65,0,0,0,10-29C414,101.08,403.4,87.89,388.25,82.8ZM339.3,160.32c.87,17.42-13.09,37.66-33.05,38.66-17.61.86-87.48-.33-87.64-.32-31-.06-78-.18-80.49-.28l-.17,3-.06-3.06s-32.11-.4-58.06-.4c-12.47,0-23.52.09-29,.37l-1.93,0c-19.58,0-35.52-14.12-35.53-31.5,0-20.7,11.3-27.43,32.21-32.6l5-2.07.17-5.06-.26-2.51a27.06,27.06,0,0,1-.35-3.62,41.33,41.33,0,0,1,41.3-41.28,40.62,40.62,0,0,1,20,5.44l10.14,5.67-.19-11.61c-.47-27.05,21-49.32,48.85-50.71l2.72-.07a52,52,0,0,1,33.93,12.49,49.69,49.69,0,0,1,12.52,16.18,48.35,48.35,0,0,1,4.73,18.63c.05,1,0,1.89-.13,4.3l-.65,17.19L235.48,85a41.23,41.23,0,0,1,70.68,28.91,42.17,42.17,0,0,1-.83,8.24L304,128.83l6.75,1.18a34.88,34.88,0,0,1,24.54,16.84,30.15,30.15,0,0,1,4,13.4S339.3,160.29,339.3,160.32Zm55.22-23.24c-4.87,5.87-11.33,9.3-18.21,9.63-5,.26-15.18.3-26.28.26a47,47,0,0,0-30.69-28.59c.12-1.49.18-3,.18-4.5A54.64,54.64,0,0,0,236.6,67.14a60.76,60.76,0,0,0-4.46-14.25c-.47-1.06-1.13-2-1.66-3,1-19.62,16.93-35.43,37.47-36.45l2.09-.05c21.14,0,38.48,16,39.51,36.39.05.76,0,1.5-.09,3.34l-.7,17.26,12.11-12.3A31.56,31.56,0,0,1,375,80.17a32,32,0,0,1-.63,6.32L373,93.19l6.73,1.19C392,96.52,400.86,106,401.41,117.31A29.26,29.26,0,0,1,394.52,137.08Z"/></g></g></svg>